<?xml version="1.0" encoding="UTF-8" standalone="no"?>
<!-- Created with Inkscape (http://www.inkscape.org/) -->

<svg
   version="1.1"
   id="svg1"
   width="324"
   height="324"
   viewBox="0 0 1080 1080"
   sodipodi:docname="new_2.svg"
   inkscape:version="1.3.2 (091e20e, 2023-11-25, custom)"
   xmlns:inkscape="http://www.inkscape.org/namespaces/inkscape"
   xmlns:sodipodi="http://sodipodi.sourceforge.net/DTD/sodipodi-0.dtd"
   xmlns="http://www.w3.org/2000/svg"
   xmlns:svg="http://www.w3.org/2000/svg">
  <defs
     id="defs1" />
  <sodipodi:namedview
     id="namedview1"
     pagecolor="#ffffff"
     bordercolor="#000000"
     borderopacity="0.25"
     inkscape:showpageshadow="2"
     inkscape:pageopacity="0.0"
     inkscape:pagecheckerboard="0"
     inkscape:deskcolor="#d1d1d1"
     inkscape:zoom="1.0794827"
     inkscape:cx="260.77305"
     inkscape:cy="131.54449"
     inkscape:window-width="1920"
     inkscape:window-height="991"
     inkscape:window-x="-9"
     inkscape:window-y="-9"
     inkscape:window-maximized="1"
     inkscape:current-layer="g1" />
  <g
     inkscape:groupmode="layer"
     inkscape:label="Image"
     id="g1"
     transform="translate(0,26.850828)">
    <g
       id="g2"
       transform="translate(12.085267,73.901368)">
      <path
         style="fill:#b9b9b9;fill-opacity:1"
         d="m 525.22238,586.43292 c 1.5125,-0.22913 3.9875,-0.22913 5.5,0 1.5125,0.22912 0.275,0.41659 -2.75,0.41659 -3.025,0 -4.2625,-0.18747 -2.75,-0.41659 z m 38.5,-0.007 c 1.7875,-0.22183 4.7125,-0.22183 6.5,0 1.7875,0.22182 0.325,0.40332 -3.25,0.40332 -3.575,0 -5.0375,-0.1815 -3.25,-0.40332 z m -114,-1 c 1.7875,-0.22183 4.7125,-0.22183 6.5,0 1.7875,0.22182 0.325,0.40332 -3.25,0.40332 -3.575,0 -5.0375,-0.1815 -3.25,-0.40332 z m 195,0 c 1.7875,-0.22183 4.7125,-0.22183 6.5,0 1.7875,0.22182 0.325,0.40332 -3.25,0.40332 -3.575,0 -5.0375,-0.1815 -3.25,-0.40332 z m -276,-1 c 1.7875,-0.22183 4.7125,-0.22183 6.5,0 1.7875,0.22182 0.325,0.40332 -3.25,0.40332 -3.575,0 -5.0375,-0.1815 -3.25,-0.40332 z m 358,0 c 1.7875,-0.22183 4.7125,-0.22183 6.5,0 1.7875,0.22182 0.325,0.40332 -3.25,0.40332 -3.575,0 -5.0375,-0.1815 -3.25,-0.40332 z M 310.45725,454.64917 c 3e-5,-69.85 0.11929,-98.27756 0.26502,-63.17236 0.14573,35.10521 0.14571,92.25521 -6e-5,127 -0.14576,34.7448 -0.26499,6.02236 -0.26496,-63.82764 z m 136.26513,108.83772 c 0.6875,-0.27741 1.8125,-0.27741 2.5,0 0.6875,0.27741 0.125,0.50439 -1.25,0.50439 -1.375,0 -1.9375,-0.22698 -1.25,-0.50439 z m 195.51903,-0.0307 c 0.97297,-0.25354 2.32297,-0.23687 3,0.0371 0.67703,0.27392 -0.11903,0.48136 -1.76903,0.46098 -1.65,-0.0204 -2.20394,-0.2445 -1.23097,-0.49804 z m 91.21473,-133.80701 c 4e-5,-64.9 0.11979,-91.30275 0.26611,-58.67277 0.14633,32.62997 0.1463,85.72997 -6e-5,118 -0.14636,32.27002 -0.26608,5.57277 -0.26605,-59.32723 z M 465.78488,544.46606 c 0.72187,-0.28887 1.58437,-0.25335 1.91666,0.079 0.33229,0.33229 -0.25833,0.56864 -1.3125,0.52521 -1.16494,-0.048 -1.4019,-0.28494 -0.60416,-0.60416 z m 152,0 c 0.72187,-0.28887 1.58437,-0.25335 1.91666,0.079 0.33229,0.33229 -0.25833,0.56864 -1.3125,0.52521 -1.16494,-0.048 -1.4019,-0.28494 -0.60416,-0.60416 z M 485.05132,481.56584 c 0.048,-1.16494 0.28494,-1.4019 0.60417,-0.60417 0.28887,0.72188 0.25334,1.58438 -0.0789,1.91667 -0.33229,0.33229 -0.56864,-0.25833 -0.52522,-1.3125 z m 86.7935,-163.16667 c -1.24387,-1.58605 -1.2085,-1.62142 0.37756,-0.37755 0.9625,0.75484 1.75,1.54234 1.75,1.75 0,0.82303 -0.82119,0.2933 -2.12756,-1.37245 z m 161.48251,-19.75 c -0.003,-4.95 0.16605,-7.10108 0.37578,-4.78017 0.20972,2.3209 0.21221,6.3709 0.006,9 -0.20668,2.62909 -0.37827,0.73017 -0.38132,-4.21983 z M 463.78488,288.46606 c 0.72187,-0.28887 1.58437,-0.25335 1.91666,0.0789 0.33229,0.33229 -0.25833,0.56864 -1.3125,0.52521 -1.16494,-0.048 -1.4019,-0.28494 -0.60416,-0.60416 z m 212.6875,-8.31689 c 0.99548,-1.1 2.03497,-2 2.30997,-2 0.275,0 -0.31449,0.9 -1.30997,2 -0.99549,1.1 -2.03498,2 -2.30998,2 -0.275,0 0.31449,-0.9 1.30998,-2 z m 18.57894,-73.58333 c 0.048,-1.16494 0.28494,-1.4019 0.60417,-0.60417 0.28887,0.72188 0.25334,1.58438 -0.0789,1.91667 -0.33229,0.33229 -0.56864,-0.25833 -0.52522,-1.3125 z"
         id="path8" />
      <path
         style="fill:#a3a3a3;fill-opacity:1"
         d="m 550.70007,586.42744 c 1.77523,-0.22091 4.92523,-0.22454 7,-0.008 2.07477,0.21648 0.62231,0.39723 -3.22769,0.40166 -3.85,0.004 -5.54754,-0.17268 -3.77231,-0.39359 z m -89,-1 c 1.77523,-0.22091 4.92523,-0.22454 7,-0.008 2.07477,0.21648 0.62231,0.39723 -3.22769,0.40166 -3.85,0.004 -5.54754,-0.17268 -3.77231,-0.39359 z m 171.02231,-0.002 c 1.7875,-0.22183 4.7125,-0.22183 6.5,0 1.7875,0.22182 0.325,0.40332 -3.25,0.40332 -3.575,0 -5.0375,-0.1815 -3.25,-0.40332 z M 380.70007,584.4271 c 1.77523,-0.22091 4.92523,-0.22454 7,-0.008 2.07477,0.21648 0.62231,0.39723 -3.22769,0.40166 -3.85,0.004 -5.54754,-0.17268 -3.77231,-0.39359 z m 333,0 c 1.77523,-0.22091 4.92523,-0.22454 7,-0.008 2.07477,0.21648 0.62231,0.39723 -3.22769,0.40166 -3.85,0.004 -5.54754,-0.17268 -3.77231,-0.39359 z M 441.22238,563.45985 c 0.9625,-0.25153 2.5375,-0.25153 3.5,0 0.9625,0.25152 0.175,0.45732 -1.75,0.45732 -1.925,0 -2.7125,-0.2058 -1.75,-0.45732 z m 205.5,0.027 c 0.6875,-0.27741 1.8125,-0.27741 2.5,0 0.6875,0.27741 0.125,0.50439 -1.25,0.50439 -1.375,0 -1.9375,-0.22698 -1.25,-0.50439 z M 335.45713,437.64917 c 4e-5,-69.3 0.11935,-97.50258 0.26514,-62.6724 0.14579,34.83018 0.14577,91.53018 -6e-5,126 -0.14582,34.46982 -0.26511,5.9724 -0.26508,-63.3276 z m 209.59419,110.91667 c 0.048,-1.16494 0.28494,-1.4019 0.60417,-0.60417 0.28887,0.72188 0.25334,1.58438 -0.0789,1.91667 -0.33229,0.33229 -0.56864,-0.25833 -0.52522,-1.3125 z M 351.45614,429.64917 c 4e-5,-64.9 0.11979,-91.30275 0.26611,-58.67277 0.14633,32.62997 0.1463,85.72997 -6e-5,118 -0.14636,32.27002 -0.26608,5.57277 -0.26605,-59.32723 z m 109.78527,114.80701 c 0.97297,-0.25354 2.32297,-0.23687 3,0.0371 0.67703,0.27392 -0.11903,0.48136 -1.76903,0.46098 -1.65,-0.0204 -2.20394,-0.2445 -1.23097,-0.49804 z m 160,0 c 0.97297,-0.25354 2.32297,-0.23687 3,0.0371 0.67703,0.27392 -0.11903,0.48136 -1.76903,0.46098 -1.65,-0.0204 -2.20394,-0.2445 -1.23097,-0.49804 z m -22.26903,-94.68456 c 0,-0.20766 0.7875,-0.99516 1.75,-1.75 1.58605,-1.24387 1.62142,-1.2085 0.37755,0.37755 -1.30637,1.66575 -2.12755,2.19548 -2.12755,1.37245 z m 4,-4 c 0,-0.20766 0.7875,-0.99516 1.75,-1.75 1.58605,-1.24387 1.62142,-1.2085 0.37755,0.37755 -1.30637,1.66575 -2.12755,2.19548 -2.12755,1.37245 z m -86.07569,-37.37245 -2.42431,-2.75 2.75,2.42432 c 1.5125,1.33337 2.75,2.57087 2.75,2.75 0,0.78427 -0.8098,0.14597 -3.07569,-2.42432 z m -165.56936,-109.75 c -0.003,-4.95 0.16605,-7.10108 0.37578,-4.78017 0.20972,2.3209 0.21221,6.3709 0.006,9 -0.20668,2.62909 -0.37827,0.73017 -0.38132,-4.21983 z m 206.72399,-7.08333 c 0.048,-1.16494 0.28494,-1.4019 0.60417,-0.60417 0.28887,0.72188 0.25334,1.58438 -0.0789,1.91667 -0.33229,0.33229 -0.56864,-0.25833 -0.52522,-1.3125 z m 137,-70 c 0.048,-1.16494 0.28494,-1.4019 0.60417,-0.60417 0.28887,0.72188 0.25334,1.58438 -0.0789,1.91667 -0.33229,0.33229 -0.56864,-0.25833 -0.52522,-1.3125 z m 0.116,-10.91667 c 0.0204,-1.65 0.2445,-2.20393 0.49805,-1.23097 0.25354,0.97297 0.23687,2.32297 -0.0371,3 -0.27392,0.67704 -0.48137,-0.11903 -0.46099,-1.76903 z m -5.116,-18.08333 c 0.048,-1.16494 0.28494,-1.4019 0.60417,-0.60417 0.28887,0.72188 0.25334,1.58438 -0.0789,1.91667 -0.33229,0.33229 -0.56864,-0.25833 -0.52522,-1.3125 z m 95.53414,-30.59965 c 0.28881,-0.4673 0.94402,-0.59074 1.45601,-0.27431 1.30839,0.80862 1.16106,1.12396 -0.52511,1.12396 -0.8008,0 -1.21971,-0.38234 -0.9309,-0.84965 z"
         id="path7" />
      <path
         style="fill:#8c8c8c;fill-opacity:1"
         d="m 474.72238,585.42578 c 1.7875,-0.22183 4.7125,-0.22183 6.5,0 1.7875,0.22182 0.325,0.40332 -3.25,0.40332 -3.575,0 -5.0375,-0.1815 -3.25,-0.40332 z m 146,0 c 1.7875,-0.22183 4.7125,-0.22183 6.5,0 1.7875,0.22182 0.325,0.40332 -3.25,0.40332 -3.575,0 -5.0375,-0.1815 -3.25,-0.40332 z m -227,-1 c 1.7875,-0.22183 4.7125,-0.22183 6.5,0 1.7875,0.22182 0.325,0.40332 -3.25,0.40332 -3.575,0 -5.0375,-0.1815 -3.25,-0.40332 z m 308,0 c 1.7875,-0.22183 4.7125,-0.22183 6.5,0 1.7875,0.22182 0.325,0.40332 -3.25,0.40332 -3.575,0 -5.0375,-0.1815 -3.25,-0.40332 z m -387.48625,-0.99419 c 1.52006,-0.22985 3.77006,-0.22371 5,0.0136 1.22993,0.23736 -0.0138,0.42543 -2.76375,0.41792 -2.75,-0.008 -3.75632,-0.20172 -2.23625,-0.43157 z m 460.00528,0.0246 c 0.97297,-0.25354 2.32297,-0.23687 3,0.0371 0.67703,0.27392 -0.11903,0.48136 -1.76903,0.46098 -1.65,-0.0204 -2.20394,-0.2445 -1.23097,-0.49804 z m -229.07409,-4.80701 c 0.0204,-1.65 0.2445,-2.20393 0.49805,-1.23097 0.25354,0.97297 0.23687,2.32297 -0.0371,3 -0.27392,0.67704 -0.48137,-0.11903 -0.46099,-1.76903 z M 361.72238,563.3999 c 14.4375,-0.15616 38.0625,-0.15616 52.5,0 14.4375,0.15617 2.625,0.28394 -26.25,0.28394 -28.875,0 -40.6875,-0.12777 -26.25,-0.28394 z m 340.5,0.004 51.75,-0.2723 V 437.67408 312.21684 l -10.502,-0.33711 -10.502,-0.33711 10.752,0.0533 10.752,0.0533 v 126 126 l -52,0.0134 -52,0.0134 z m -320.5,-19.00373 c 14.4375,-0.15616 38.0625,-0.15616 52.5,0 14.4375,0.15617 2.625,0.28394 -26.25,0.28394 -28.875,0 -40.6875,-0.12777 -26.25,-0.28394 z m 269,0 c 14.4375,-0.15616 38.0625,-0.15616 52.5,0 14.4375,0.15617 2.625,0.28394 -26.25,0.28394 -28.875,0 -40.6875,-0.12777 -26.25,-0.28394 z m -54.25,-92.25073 c 0.99548,-1.1 2.03497,-2 2.30997,-2 0.275,0 -0.31449,0.9 -1.30997,2 -0.99549,1.1 -2.03498,2 -2.30998,2 -0.275,0 0.31449,-0.9 1.30998,-2 z m -64.07143,-138 c 0,-1.29524 0.33809,-1.63333 0.98571,-0.98571 0.64762,0.64762 0.64762,1.32381 0,1.97143 -0.64762,0.64762 -0.98571,0.30952 -0.98571,-0.98572 z m -192.65214,-2.73349 c 2.35204,-0.21125 5.95204,-0.20828 8,0.007 2.04796,0.21488 0.12357,0.38771 -4.27643,0.38408 -4.4,-0.004 -6.07561,-0.17944 -3.72357,-0.39068 z m 218.38146,-16.26651 c 0,-1.375 0.22697,-1.9375 0.50439,-1.25 0.27741,0.6875 0.27741,1.8125 0,2.5 -0.27742,0.6875 -0.50439,0.125 -0.50439,-1.25 z m -176.838,-2.74938 c 14.20094,-0.15657 37.15094,-0.15642 51,3.2e-4 13.84906,0.15674 2.23011,0.28484 -25.81989,0.28466 -28.05,-1.7e-4 -39.38105,-0.12841 -25.18011,-0.28498 z m 290.68011,-0.1916 c 0,-0.51754 0.51952,-1.26207 1.1545,-1.65451 0.70964,-0.43858 0.88329,-0.27468 0.45066,0.42533 -0.51859,0.83909 6.74478,1.21304 27.5955,1.42071 l 28.29934,0.28187 -28.75,0.23379 c -17.46354,0.14201 -28.75,-0.13561 -28.75,-0.70719 z m -113.92106,-3.64235 c 0.048,-1.16494 0.28494,-1.4019 0.60417,-0.60417 0.28887,0.72188 0.25334,1.58438 -0.0789,1.91667 -0.33229,0.33229 -0.56864,-0.25833 -0.52522,-1.3125 z m -99.26644,-0.0998 c 0.72187,-0.28887 1.58437,-0.25335 1.91666,0.0789 0.33229,0.33229 -0.25833,0.56864 -1.3125,0.52521 -1.16494,-0.048 -1.4019,-0.28494 -0.60416,-0.60416 z m 236.43968,-71.81689 c 0.0111,-2.2 0.21588,-2.98225 0.45508,-1.73834 0.23919,1.24391 0.23011,3.04391 -0.0202,4 -0.2503,0.95609 -0.446,-0.0617 -0.4349,-2.26166 z m -76.75218,-9.5 c 2.14824,-2.2 4.13089,-4 4.40589,-4 0.275,0 -1.25765,1.8 -3.40589,4 -2.14825,2.2 -4.1309,4 -4.4059,4 -0.275,0 1.25765,-1.8 3.4059,-4 z m 71.57894,-17.58333 c 0.048,-1.16494 0.28494,-1.4019 0.60417,-0.60417 0.28887,0.72188 0.25334,1.58438 -0.0789,1.91667 -0.33229,0.33229 -0.56864,-0.25833 -0.52522,-1.3125 z m 4,-2 c 0.048,-1.16494 0.28494,-1.4019 0.60417,-0.60417 0.28887,0.72188 0.25334,1.58438 -0.0789,1.91667 -0.33229,0.33229 -0.56864,-0.25833 -0.52522,-1.3125 z"
         id="path6" />
      <path
         style="fill:#767676;fill-opacity:1"
         d="m 548.24733,628.94206 c -4.22269,-5.24379 -11.1354,-23.87773 -13.38276,-36.0746 l -1.18129,-6.41104 -41.10545,-0.64715 c -22.608,-0.35593 -68.10545,-0.88798 -101.10545,-1.18233 -33,-0.29435 -64.6142,-0.79068 -70.25378,-1.10296 l -10.25378,-0.56778 0.25378,-128.15352 0.25378,-128.15351 9.75,-0.28621 9.75,-0.28621 v -8.26379 c 0,-5.09406 0.46028,-8.72407 1.2,-9.46379 0.76059,-0.76059 4.59166,-1.2 10.46247,-1.2 h 9.26247 l 0.28753,-9.25 0.28753,-9.25 h 57 c 60.70168,0 65.33091,0.28167 83.16353,5.06008 19.53052,5.23337 41.38585,16.96159 39.86349,21.39192 -0.85602,2.49115 2.13194,-1.67841 8.20666,-11.452 4.91426,-7.90654 10.55977,-19.01347 14.14117,-27.8212 1.74377,-4.28847 4.26669,-3.09056 5.95103,2.82562 0.78224,2.74757 1.64919,5.67058 1.92655,6.49558 0.27736,0.825 1.15251,-0.975 1.94476,-4 1.67704,-6.40328 8.19247,-20.53767 14.24146,-30.89496 17.1128,-29.30117 56.5782,-67.63666 105.88179,-102.85038 15.17586,-10.83894 17.21308,-11.09708 12.54465,-1.58957 l -2.86509,5.83491 v 42.5 42.5 l -3.28527,8.5861 c -1.8069,4.72236 -5.29374,12.11052 -7.74854,16.41813 -2.4548,4.30762 -4.35143,7.94232 -4.21473,8.07712 0.13669,0.1348 2.04854,-0.0806 4.24854,-0.47869 10.39915,-1.88168 14.97447,0.6487 8.29876,4.58964 -1.81432,1.07106 -6.18108,4.61596 -9.7039,7.87754 l -6.40514,5.93016 28.40514,0.5 28.40514,0.5 0.28752,9.25 0.28753,9.25 h 11.76247 c 7.81526,0 12.16517,0.40269 12.96248,1.2 0.73971,0.73972 1.2,4.36973 1.2,9.46379 v 8.26379 l 9.75,0.28621 9.75,0.28621 0.25378,128.17 0.25378,128.17 -6.25378,0.55468 c -3.43958,0.30506 -55.75378,1.07576 -116.25378,1.71265 -60.5,0.63689 -110.19889,1.33468 -110.44197,1.55063 -1.18897,1.05629 2.52005,26.15362 6.10098,41.28265 0.44352,1.87382 -2.53512,2.52742 -3.88406,0.85228 z m -4.21429,-23.91573 c -1.81717,-11.37959 -3.21369,-40.06349 -2.57441,-52.87716 2.97432,-59.617 17.06776,-121.68359 41.58891,-183.1549 15.57142,-39.03551 32.43003,-75.44144 60.93815,-131.5951 10.4011,-20.4875 18.73668,-37.25 18.5235,-37.25 -0.21318,0 -5.55172,8.8875 -11.86342,19.75 -52.58513,90.4995 -87.90299,169.31241 -102.50808,228.75 -8.63691,35.14921 -12.09863,59.93991 -12.85475,92.05772 -0.57926,24.60543 0.25747,37.67077 3.32649,51.94228 1.78485,8.29986 5.38651,19.80977 6.00524,19.19104 0.24019,-0.24019 -0.0215,-3.30644 -0.58163,-6.81388 z m -22.06066,-24.9688 c -10.27039,-3.11251 -40.09109,-8.82672 -54.4172,-10.42737 -10.04622,-1.12246 -27.27442,-1.46397 -74.22582,-1.47136 -54.82626,-0.009 -61.20572,-0.17304 -61.75,-1.59142 -0.33384,-0.86998 -0.60698,-54.41998 -0.60698,-119 V 330.14917 h -8 -8 v 125 125 l 30.75,0.14091 c 16.9125,0.0775 53.475,0.42596 81.25,0.77436 27.775,0.34839 61.975,0.70758 76,0.7982 l 25.5,0.16476 z m 194.75,0.43388 58.25,-0.66306 V 454.98876 330.14917 h -8 -8 v 117.41821 c 0,64.58002 -0.27315,118.13002 -0.60699,119 -0.54436,1.41858 -6.96747,1.58273 -62.25,1.59087 -65.12992,0.01 -73.82089,0.45968 -97.89897,5.07003 -14.75158,2.82456 -36.24404,7.96175 -36.24404,8.66315 0,0.31721 21.7125,0.28117 48.25,-0.0801 26.5375,-0.36127 74.4625,-0.95523 106.5,-1.31992 z M 554.53544,569.61967 c 16.79284,-11.83833 32.38576,-18.88242 49.93694,-22.55895 8.21272,-1.72036 14.05168,-1.88642 66.75,-1.89841 l 57.75,-0.0131 v -126.5 -126.5 h -28.05902 c -22.11461,0 -27.92632,-0.26482 -27.43266,-1.25 2.07223,-4.13547 -8.04781,8.80065 -12.00238,15.34225 -9.08137,15.02229 -13.1423,28.14734 -21.93911,70.90775 -1.98009,9.625 -5.42303,23.20191 -7.65099,30.17091 -5.91962,18.51645 -12.03619,27.91253 -29.55369,45.3994 l -10.13785,10.12013 4.13785,-0.80167 c 6.0329,-1.16881 11.63785,-1.06237 11.63785,0.22102 0,0.61039 -2.23961,3.56028 -4.97691,6.55532 -6.08172,6.65437 -8.15893,12.72998 -10.99924,32.1716 -2.36996,16.22213 -4.79664,23.95448 -10.08613,32.13835 -5.32833,8.24397 -17.98173,21.19816 -28.33899,29.01264 l -8.59873,6.48769 0.16003,6.51231 c 0.088,3.58176 0.33413,5.14903 0.54692,3.4828 0.31858,-2.49471 1.88192,-4.08345 8.85611,-9 z m 10.59614,7.09583 c 9.53744,-2.43852 22.0658,-5.36325 27.8408,-6.4994 27.83504,-5.47617 26.51353,-5.3936 96,-5.99759 l 65.5,-0.56934 v -126 -126 l -10.74592,-0.28379 -10.74592,-0.28379 -0.25408,118.78379 -0.25408,118.78379 -62,0.53331 c -60.80883,0.52305 -62.1537,0.57729 -70,2.82323 -16.92153,4.84364 -31.88464,12.3106 -46.75,23.32941 -6.13948,4.55082 -7.51715,5.81405 -6.3408,5.81405 0.22507,0 8.21257,-1.99515 17.75,-4.43367 z m -33.16712,0.18367 c -0.0182,-2.87165 -22.77283,-16.1223 -36.66633,-21.3518 -15.61812,-5.87865 -13.83641,-5.73887 -80.82575,-6.34096 l -62,-0.55724 -0.5,-118.5 -0.5,-118.5 h -8 -8 v 126 126 l 65,0.56942 c 76.46682,0.66987 78.21163,0.84561 124,12.48905 6.53974,1.66298 7.50155,1.68757 7.49208,0.19153 z m 1.93037,-73.25 c 2.28797,-17.34484 8.8249,-50.76088 12.1286,-62 1.1317,-3.85 2.25373,-7.9 2.49341,-9 0.47133,-2.16315 1.21527,-4.50098 7.47807,-23.5 4.62636,-14.03464 18.38747,-49.31536 20.56122,-52.71481 0.77894,-1.21815 1.41625,-2.68238 1.41625,-3.25383 0,-0.57146 2.05952,-5.42479 4.57671,-10.78518 13.26586,-28.2498 21.0287,-44.36255 23.96683,-49.74618 3.48352,-6.38294 10.91338,-20.41489 15.62015,-29.5 1.56717,-3.025 4.17593,-7.75 5.79725,-10.5 1.62131,-2.75 4.09492,-7.25 5.49691,-10 1.40199,-2.75 3.64936,-6.8 4.99416,-9 1.3448,-2.2 2.9,-4.9938 3.45599,-6.20844 1.78311,-3.89546 26.11317,-44.24817 36.85603,-61.1277 5.71836,-8.98488 10.24271,-16.49044 10.05412,-16.67903 -0.94493,-0.94493 -31.76342,23.16737 -49.79766,38.96155 -37.4941,32.8369 -60.7946,63.28494 -70.0618,91.55362 -3.4209,10.43512 -3.56362,27.43579 -0.28178,33.5669 1.1973,2.23679 2.8848,4.65439 3.75,5.37244 2.00162,1.6612 2.03648,4.06066 0.059,4.06066 -2.15863,0 -6.91145,-5.59028 -10.13752,-11.92377 -2.70602,-5.31254 -3.06705,-7.75652 -4.29523,-29.07623 -0.0475,-0.825 -2.72329,3.48986 -5.94613,9.58858 -7.07265,13.38387 -15.38468,26.2345 -29.04953,44.91142 -14.42985,19.7225 -19.07601,29.83666 -19.04563,41.4601 0.0342,13.05899 8.57924,28.60472 19.59762,35.65308 5.10052,3.26277 6.20389,5.38682 2.79826,5.38682 -3.33817,0 -11.70295,-5.37398 -16.63814,-10.68923 -8.73429,-9.4069 -12.95474,-13.45896 -13.47569,-12.93801 -0.27181,0.27181 0.29508,3.56163 1.25977,7.31072 1.09909,4.27145 1.73549,10.36352 1.70448,16.31652 -0.0516,9.91432 0.0416,9.51157 -8.21419,35.49434 -7.24439,22.79982 -7.48788,33.10114 -1.08743,46.00566 3.49257,7.04168 13.52317,20.55102 21.44751,28.88578 3.07777,3.23717 5.59595,6.27467 5.59595,6.75 0,1.60994 -3.11826,0.87544 -6.31673,-1.4879 -5.98501,-4.42231 -6.79289,-4.07171 -3.84146,1.66713 1.46663,2.85174 3.52993,7.19986 4.58511,9.66248 2.13033,4.97186 8.94878,12.77515 15.07308,17.25022 l 4,2.92282 0.65593,-23.32526 c 0.3994,-14.20246 1.48142,-29.58307 2.76652,-39.32527 z m 20.57755,52.43707 c 9.1292,-7.43701 19.24484,-18.03581 23.83763,-24.9762 5.15616,-7.79172 7.49452,-15.20859 9.7315,-30.86651 2.37053,-16.59272 4.90675,-25.38053 8.92649,-30.92962 l 3.05344,-4.21516 -2.77453,0.60511 c -7.34319,1.60151 -13.92319,4.06615 -18.97138,7.10601 -6.33349,3.81383 -7.32144,4.0302 -7.25683,1.5893 0.0273,-1.0295 4.21824,-4.83783 10.17944,-9.25 11.65384,-8.62556 26.26244,-22.62597 33.26172,-31.87695 9.95505,-13.15765 14.85994,-26.83777 22.05177,-61.50408 7.91991,-38.17583 10.72048,-47.65839 18.43191,-62.40935 5.42286,-10.37323 12.25937,-19.25372 21.94855,-28.5107 5.26146,-5.02677 7.44093,-7.69892 6.27942,-7.69892 -3.87061,0 -13.7374,3.21151 -23.21721,7.5569 -9.22656,4.2293 -11.98192,4.78011 -11.98192,2.39525 0,-1.06281 13.63036,-8.06845 19.23391,-9.88571 2.15993,-0.70047 5.25225,-2.972 7.33583,-5.38868 4.72828,-5.48418 12.97233,-22.47501 14.88503,-30.67776 1.61619,-6.93111 1.85999,-29.83202 0.65689,-61.70353 l -0.61166,-16.20353 -14.96128,27.70353 c -49.24428,91.18477 -86.76134,172.95025 -102.87297,224.20353 -16.0313,50.99778 -26.66575,109.12724 -26.66575,145.75891 0,7.32225 -0.55624,7.37037 9.5,-0.82184 z m -40.92184,0.88321 c -1.96773,-2.29885 -4.5903,-6.43921 -5.82793,-9.2008 -4.53006,-10.10818 -6.58109,-13.17812 -10.66608,-15.96472 -3.4982,-2.38632 -3.97012,-3.08724 -2.92581,-4.34555 0.90348,-1.08863 2.30756,-1.33042 5.11699,-0.88117 4.48368,0.71697 4.75373,1.41796 -3.84667,-9.9851 -17.44293,-23.12717 -18.30627,-33.88428 -5.73383,-71.44294 l 5.52324,-16.5 -0.45003,-11.5 c -0.35289,-9.01773 -1.02746,-13.18779 -3.12523,-19.31929 -3.72732,-10.8945 -2.48745,-12.13271 6.2567,-6.24833 2.80527,1.8878 5.09561,3.3503 5.08966,3.25 -0.006,-0.10031 -0.68095,-2.3914 -1.5,-5.09131 -3.18428,-10.4967 -0.67185,-26.88096 5.76437,-37.59107 1.66006,-2.7624 20.13317,-28.74807 23.86573,-33.57135 1.71191,-2.21215 -15.08383,-12.28896 -29.61927,-17.77045 -19.14941,-7.22146 -35.04062,-8.63458 -97.25,-8.64788 l -48.25,-0.0103 v 126.5 126.5 h 56.88953 c 47.54443,0 58.25074,0.25822 65.17608,1.57193 10.99939,2.08655 21.76973,5.69198 30.93439,10.35547 4.125,2.09902 7.64756,3.87405 7.82792,3.94451 0.18036,0.0705 -1.28204,-1.75278 -3.24976,-4.05163 z"
         id="path5" />
      <path
         style="fill:#606060;fill-opacity:1"
         d="m 543.62304,610.6812 c -0.30982,-0.80739 -0.13297,-1.73395 0.39301,-2.05902 0.52598,-0.32507 0.95633,0.33552 0.95633,1.46797 0,2.41457 -0.55612,2.65816 -1.34934,0.59105 z m -0.57172,-8.11536 c 0.048,-1.16494 0.28494,-1.4019 0.60417,-0.60417 0.28887,0.72188 0.25334,1.58438 -0.0789,1.91667 -0.33229,0.33229 -0.56864,-0.25833 -0.52522,-1.3125 z m -0.884,-8.91667 c 0.0204,-1.65 0.2445,-2.20393 0.49805,-1.23097 0.25354,0.97297 0.23687,2.32297 -0.0371,3 -0.27392,0.67704 -0.48137,-0.11903 -0.46099,-1.76903 z m -5.116,-8.08333 c 0.048,-1.16494 0.28494,-1.4019 0.60417,-0.60417 0.28887,0.72188 0.25334,1.58438 -0.0789,1.91667 -0.33229,0.33229 -0.56864,-0.25833 -0.52522,-1.3125 z m 4.23093,-6.91667 c 0.006,-3.3 0.1923,-4.52944 0.41486,-2.73209 0.22256,1.79735 0.21797,4.49735 -0.0102,6 -0.22817,1.50265 -0.41027,0.0321 -0.40465,-3.26791 z m -53.55987,2.75493 c 5.0875,-0.18149 13.4125,-0.18149 18.5,0 5.0875,0.18149 0.925,0.32999 -9.25,0.32999 -10.175,0 -14.3375,-0.1485 -9.25,-0.32999 z m 38.0625,0.062 c 0.72187,-0.28887 1.58437,-0.25335 1.91666,0.079 0.33229,0.33229 -0.25833,0.56864 -1.3125,0.52521 -1.16494,-0.048 -1.4019,-0.28494 -0.60416,-0.60416 z m 68.48944,-0.063 c 5.39106,-0.18015 13.94106,-0.17936 19,0.002 5.05893,0.18111 0.64806,0.32851 -9.80194,0.32755 -10.45,-9.6e-4 -14.58913,-0.14914 -9.19806,-0.3293 z m -195.99759,-1.00063 c 5.94239,-0.1771 15.39239,-0.17644 21,10e-4 5.6076,0.17792 0.74565,0.32282 -10.80435,0.322 -11.55,-8.1e-4 -16.13805,-0.14638 -10.19565,-0.32348 z m 276.99759,6.3e-4 c 5.39106,-0.18015 13.94106,-0.17936 19,0.002 5.05893,0.18111 0.64806,0.32851 -9.80194,0.32755 -10.45,-9.6e-4 -14.58913,-0.14914 -9.19806,-0.3293 z m -354.01036,-0.99637 c 3.73538,-0.19292 9.58538,-0.19149 13,0.003 3.41463,0.19468 0.35842,0.35253 -6.79158,0.35078 -7.15,-0.002 -9.94379,-0.16103 -6.20842,-0.35396 z m 214.78736,-0.84083 c 0.048,-1.16494 0.28494,-1.4019 0.60417,-0.60417 0.28887,0.72188 0.25334,1.58438 -0.0789,1.91667 -0.33229,0.33229 -0.56864,-0.25833 -0.52522,-1.3125 z m 217.21676,0.8392 c 4.28764,-0.1879 11.03764,-0.18676 15,0.003 3.96236,0.1893 0.4543,0.34304 -7.7957,0.34164 -8.25,-10e-4 -11.49194,-0.15629 -7.2043,-0.34419 z m -261.4832,-5.93898 c 0.72187,-0.28887 1.58437,-0.25335 1.91666,0.079 0.33229,0.33229 -0.25833,0.56864 -1.3125,0.52521 -1.16494,-0.048 -1.4019,-0.28494 -0.60416,-0.60416 z m 110,-1 c 0.72187,-0.28887 1.58437,-0.25335 1.91666,0.079 0.33229,0.33229 -0.25833,0.56864 -1.3125,0.52521 -1.16494,-0.048 -1.4019,-0.28494 -0.60416,-0.60416 z m -121,-1 c 0.72187,-0.28887 1.58437,-0.25335 1.91666,0.079 0.33229,0.33229 -0.25833,0.56864 -1.3125,0.52521 -1.16494,-0.048 -1.4019,-0.28494 -0.60416,-0.60416 z m 127,0 c 0.72187,-0.28887 1.58437,-0.25335 1.91666,0.079 0.33229,0.33229 -0.25833,0.56864 -1.3125,0.52521 -1.16494,-0.048 -1.4019,-0.28494 -0.60416,-0.60416 z m -134.0625,-0.97917 c 0.6875,-0.27741 1.8125,-0.27741 2.5,0 0.6875,0.27741 0.125,0.50439 -1.25,0.50439 -1.375,0 -1.9375,-0.22698 -1.25,-0.50439 z m 61.482,-2.33772 c 0,-1.925 0.20579,-2.7125 0.45732,-1.75 0.25153,0.9625 0.25153,2.5375 0,3.5 -0.25153,0.9625 -0.45732,0.175 -0.45732,-1.75 z m 78.518,2.33772 c 0.6875,-0.27741 1.8125,-0.27741 2.5,0 0.6875,0.27741 0.125,0.50439 -1.25,0.50439 -1.375,0 -1.9375,-0.22698 -1.25,-0.50439 z m -149,-1 c 0.6875,-0.27741 1.8125,-0.27741 2.5,0 0.6875,0.27741 0.125,0.50439 -1.25,0.50439 -1.375,0 -1.9375,-0.22698 -1.25,-0.50439 z m 158,0 c 0.6875,-0.27741 1.8125,-0.27741 2.5,0 0.6875,0.27741 0.125,0.50439 -1.25,0.50439 -1.375,0 -1.9375,-0.22698 -1.25,-0.50439 z m -169.5,-1.02704 c 0.9625,-0.25153 2.5375,-0.25153 3.5,0 0.9625,0.25152 0.175,0.45732 -1.75,0.45732 -1.925,0 -2.7125,-0.2058 -1.75,-0.45732 z m 179.51166,-0.0179 c 1.24391,-0.23919 3.04391,-0.23011 4,0.0202 0.95608,0.25029 -0.0617,0.446 -2.26166,0.4349 -2.2,-0.0111 -2.98226,-0.21589 -1.73834,-0.45508 z m -91.47565,-19.79274 c 0.008,-2.75 0.20171,-3.75631 0.43157,-2.23625 0.22985,1.52006 0.22371,3.77006 -0.0137,5 -0.23736,1.22994 -0.42543,-0.0137 -0.41792,-2.76375 z m 0.90893,-16 c 0.0204,-1.65 0.2445,-2.20393 0.49805,-1.23097 0.25354,0.97297 0.23687,2.32297 -0.0371,3 -0.27392,0.67704 -0.48137,-0.11903 -0.46099,-1.76903 z m -6.96294,-4.5 c 0,-1.925 0.20579,-2.7125 0.45732,-1.75 0.25153,0.9625 0.25153,2.5375 0,3.5 -0.25153,0.9625 -0.45732,0.175 -0.45732,-1.75 z m 7.96294,-5.5 c 0.0204,-1.65 0.2445,-2.20393 0.49805,-1.23097 0.25354,0.97297 0.23687,2.32297 -0.0371,3 -0.27392,0.67704 -0.48137,-0.11903 -0.46099,-1.76903 z m -7.03705,-6.5 c 0,-1.375 0.22697,-1.9375 0.50439,-1.25 0.27741,0.6875 0.27741,1.8125 0,2.5 -0.27742,0.6875 -0.50439,0.125 -0.50439,-1.25 z m 8,-2 c 0,-1.375 0.22697,-1.9375 0.50439,-1.25 0.27741,0.6875 0.27741,1.8125 0,2.5 -0.27742,0.6875 -0.50439,0.125 -0.50439,-1.25 z m -7,-7 c 0,-1.375 0.22697,-1.9375 0.50439,-1.25 0.27741,0.6875 0.27741,1.8125 0,2.5 -0.27742,0.6875 -0.50439,0.125 -0.50439,-1.25 z m 7.92105,-0.58333 c 0.048,-1.16494 0.28494,-1.4019 0.60417,-0.60417 0.28887,0.72188 0.25334,1.58438 -0.0789,1.91667 -0.33229,0.33229 -0.56864,-0.25833 -0.52522,-1.3125 z m -6.92105,-7.41667 c 0,-1.375 0.22697,-1.9375 0.50439,-1.25 0.27741,0.6875 0.27741,1.8125 0,2.5 -0.27742,0.6875 -0.50439,0.125 -0.50439,-1.25 z m 7.92105,0.41667 c 0.048,-1.16494 0.28494,-1.4019 0.60417,-0.60417 0.28887,0.72188 0.25334,1.58438 -0.0789,1.91667 -0.33229,0.33229 -0.56864,-0.25833 -0.52522,-1.3125 z m 1,-6 c 0.048,-1.16494 0.28494,-1.4019 0.60417,-0.60417 0.28887,0.72188 0.25334,1.58438 -0.0789,1.91667 -0.33229,0.33229 -0.56864,-0.25833 -0.52522,-1.3125 z m 1,-6 c 0.048,-1.16494 0.28494,-1.4019 0.60417,-0.60417 0.28887,0.72188 0.25334,1.58438 -0.0789,1.91667 -0.33229,0.33229 -0.56864,-0.25833 -0.52522,-1.3125 z m 4,-20 c 0.048,-1.16494 0.28494,-1.4019 0.60417,-0.60417 0.28887,0.72188 0.25334,1.58438 -0.0789,1.91667 -0.33229,0.33229 -0.56864,-0.25833 -0.52522,-1.3125 z M 318.72238,330.41697 c 2.3375,-0.21054 6.1625,-0.21054 8.5,0 2.3375,0.21053 0.425,0.38279 -4.25,0.38279 -4.675,0 -6.5875,-0.17226 -4.25,-0.38279 z m 444,0 c 2.3375,-0.21054 6.1625,-0.21054 8.5,0 2.3375,0.21053 0.425,0.38279 -4.25,0.38279 -4.675,0 -6.5875,-0.17226 -4.25,-0.38279 z m -107.2073,-118.1987 c -0.66497,-1.07595 1.29228,-2.56744 2.19049,-1.66923 0.33008,0.33007 0.0486,0.60013 -0.62554,0.60013 -0.67413,0 -0.94757,0.45 -0.60765,1 0.33991,0.55 0.39303,1 0.11803,1 -0.275,0 -0.7589,-0.4189 -1.07533,-0.9309 z m 3.53577,-6.8191 c 3.45252,-5.77576 4.34315,-6.26826 1.80839,-1 -1.25697,2.6125 -2.68243,4.75 -3.16769,4.75 -0.48526,0 0.12642,-1.6875 1.3593,-3.75 z m 77.92153,-102.62755 c 0,-0.20766 0.7875,-0.99516 1.75,-1.75 1.58605,-1.243874 1.62142,-1.208504 0.37755,0.37755 -1.30637,1.66575 -2.12755,2.19548 -2.12755,1.37245 z m 14.87244,-1.37245 c -1.24387,-1.586054 -1.2085,-1.621424 0.37756,-0.37755 0.9625,0.75484 1.75,1.54234 1.75,1.75 0,0.82303 -0.82119,0.2933 -2.12756,-1.37245 z"
         id="path4" />
      <path
         style="fill:#494949;fill-opacity:1"
         d="m 542.74153,607.19284 c -0.69117,-2.46112 -0.27771,-3.88556 0.81165,-2.7962 0.31944,0.31944 0.42271,1.63194 0.22949,2.91667 l -0.35131,2.33586 z m -0.61126,-9.04367 c 0,-1.375 0.22697,-1.9375 0.50439,-1.25 0.27741,0.6875 0.27741,1.8125 0,2.5 -0.27742,0.6875 -0.50439,0.125 -0.50439,-1.25 z m -3.07895,-4.58333 c 0.048,-1.16494 0.28494,-1.4019 0.60417,-0.60417 0.28887,0.72188 0.25334,1.58438 -0.0789,1.91667 -0.33229,0.33229 -0.56864,-0.25833 -0.52522,-1.3125 z m -1,-5 c 0.048,-1.16494 0.28494,-1.4019 0.60417,-0.60417 0.28887,0.72188 0.25334,1.58438 -0.0789,1.91667 -0.33229,0.33229 -0.56864,-0.25833 -0.52522,-1.3125 z m 3.15306,-1.41667 c 0,-1.925 0.20579,-2.7125 0.45732,-1.75 0.25153,0.9625 0.25153,2.5375 0,3.5 -0.25153,0.9625 -0.45732,0.175 -0.45732,-1.75 z m -4.15306,-4.58333 c 0.048,-1.16494 0.28494,-1.4019 0.60417,-0.60417 0.28887,0.72188 0.25334,1.58438 -0.0789,1.91667 -0.33229,0.33229 -0.56864,-0.25833 -0.52522,-1.3125 z m -18.57894,-1.42654 c 2.2,-0.42893 4.675,-0.39086 5.5,0.0846 0.9671,0.55735 -0.45394,0.83441 -4,0.77987 -5.45989,-0.084 -5.47083,-0.0903 -1.5,-0.86446 z m 46.5,0.18971 c 0.825,-0.41763 5.775,-0.4829 11,-0.14504 l 9.5,0.6143 -11,0.14504 c -6.05,0.0798 -10.325,-0.19666 -9.5,-0.6143 z M 438.77557,580.4027 c 5.66676,-0.17857 14.66676,-0.17784 20,0.002 5.33324,0.17946 0.69681,0.32556 -10.30319,0.32467 -11,-8.8e-4 -15.36357,-0.14771 -9.69681,-0.32628 z m 199.94681,10e-4 c 5.0875,-0.18149 13.4125,-0.18149 18.5,0 5.0875,0.18149 0.925,0.32999 -9.25,0.32999 -10.175,0 -14.3375,-0.1485 -9.25,-0.32999 z m -288.94681,-1.0014 c 5.66676,-0.17857 14.66676,-0.17784 20,0.002 5.33324,0.17946 0.69681,0.32556 -10.30319,0.32467 -11,-8.8e-4 -15.36357,-0.14771 -9.69681,-0.32628 z m 369.39622,0.003 c 4.78468,-0.18291 12.88468,-0.18376 18,-0.002 5.11532,0.18186 1.20059,0.33152 -8.69941,0.33256 -9.9,10e-4 -14.08527,-0.14774 -9.30059,-0.33065 z m -214.38691,-2.93928 c 0.72187,-0.28887 1.58437,-0.25335 1.91666,0.079 0.33229,0.33229 -0.25833,0.56864 -1.3125,0.52521 -1.16494,-0.048 -1.4019,-0.28494 -0.60416,-0.60416 z m 31.38244,-1.81689 c 0.0204,-1.65 0.2445,-2.20393 0.49805,-1.23097 0.25354,0.97297 0.23687,2.32297 -0.0371,3 -0.27392,0.67704 -0.48137,-0.11903 -0.46099,-1.76903 z m -36.38244,0.81689 c 0.72187,-0.28887 1.58437,-0.25335 1.91666,0.079 0.33229,0.33229 -0.25833,0.56864 -1.3125,0.52521 -1.16494,-0.048 -1.4019,-0.28494 -0.60416,-0.60416 z m 89,0 c 0.72187,-0.28887 1.58437,-0.25335 1.91666,0.079 0.33229,0.33229 -0.25833,0.56864 -1.3125,0.52521 -1.16494,-0.048 -1.4019,-0.28494 -0.60416,-0.60416 z m -94,-1 c 0.72187,-0.28887 1.58437,-0.25335 1.91666,0.079 0.33229,0.33229 -0.25833,0.56864 -1.3125,0.52521 -1.16494,-0.048 -1.4019,-0.28494 -0.60416,-0.60416 z m 104,-1 c 0.72187,-0.28887 1.58437,-0.25335 1.91666,0.079 0.33229,0.33229 -0.25833,0.56864 -1.3125,0.52521 -1.16494,-0.048 -1.4019,-0.28494 -0.60416,-0.60416 z m -115,-1 c 0.72187,-0.28887 1.58437,-0.25335 1.91666,0.079 0.33229,0.33229 -0.25833,0.56864 -1.3125,0.52521 -1.16494,-0.048 -1.4019,-0.28494 -0.60416,-0.60416 z m -6,-1 c 0.72187,-0.28887 1.58437,-0.25335 1.91666,0.079 0.33229,0.33229 -0.25833,0.56864 -1.3125,0.52521 -1.16494,-0.048 -1.4019,-0.28494 -0.60416,-0.60416 z m -8.0625,-0.97917 c 0.6875,-0.27741 1.8125,-0.27741 2.5,0 0.6875,0.27741 0.125,0.50439 -1.25,0.50439 -1.375,0 -1.9375,-0.22698 -1.25,-0.50439 z m 148,0 c 0.6875,-0.27741 1.8125,-0.27741 2.5,0 0.6875,0.27741 0.125,0.50439 -1.25,0.50439 -1.375,0 -1.9375,-0.22698 -1.25,-0.50439 z m -157,-1 c 0.6875,-0.27741 1.8125,-0.27741 2.5,0 0.6875,0.27741 0.125,0.50439 -1.25,0.50439 -1.375,0 -1.9375,-0.22698 -1.25,-0.50439 z m 166,0 c 0.6875,-0.27741 1.8125,-0.27741 2.5,0 0.6875,0.27741 0.125,0.50439 -1.25,0.50439 -1.375,0 -1.9375,-0.22698 -1.25,-0.50439 z m -184,-1.06111 c 1.7875,-0.22183 4.7125,-0.22183 6.5,0 1.7875,0.22182 0.325,0.40332 -3.25,0.40332 -3.575,0 -5.0375,-0.1815 -3.25,-0.40332 z m 197,0.0177 c 1.2375,-0.23835 3.2625,-0.23835 4.5,0 1.2375,0.23835 0.225,0.43337 -2.25,0.43337 -2.475,0 -3.4875,-0.19502 -2.25,-0.43337 z m -104.42186,-9.79427 c 0.004,-3.85 0.18518,-5.30246 0.40165,-3.22769 0.21648,2.07476 0.21285,5.22476 -0.008,7 -0.22091,1.77523 -0.39803,0.0777 -0.39359,-3.77231 z m 4.8668,2 c 0.0204,-1.65 0.2445,-2.20393 0.49805,-1.23097 0.25354,0.97297 0.23687,2.32297 -0.0371,3 -0.27392,0.67704 -0.48137,-0.11903 -0.46099,-1.76903 z m -4.85213,-22 c 0.004,-4.4 0.17944,-6.0756 0.39068,-3.72357 0.21125,2.35204 0.20828,5.95204 -0.007,8 -0.21488,2.04797 -0.38772,0.12357 -0.38408,-4.27643 z m 5.90937,2 c 0.0111,-2.2 0.21588,-2.98225 0.45508,-1.73834 0.23919,1.24391 0.23011,3.04391 -0.0202,4 -0.2503,0.95609 -0.446,-0.0617 -0.4349,-2.26166 z m 0.90571,-12.5 c 0,-1.375 0.22697,-1.9375 0.50439,-1.25 0.27741,0.6875 0.27741,1.8125 0,2.5 -0.27742,0.6875 -0.50439,0.125 -0.50439,-1.25 z m -5.96295,-7.5 c 0.0204,-1.65 0.2445,-2.20393 0.49805,-1.23097 0.25354,0.97297 0.23687,2.32297 -0.0371,3 -0.27392,0.67704 -0.48137,-0.11903 -0.46099,-1.76903 z m 6.884,-2.08333 c 0.048,-1.16494 0.28494,-1.4019 0.60417,-0.60417 0.28887,0.72188 0.25334,1.58438 -0.0789,1.91667 -0.33229,0.33229 -0.56864,-0.25833 -0.52522,-1.3125 z m -5.92105,-7.41667 c 0,-1.375 0.22697,-1.9375 0.50439,-1.25 0.27741,0.6875 0.27741,1.8125 0,2.5 -0.27742,0.6875 -0.50439,0.125 -0.50439,-1.25 z m 6.92105,-0.58333 c 0.048,-1.16494 0.28494,-1.4019 0.60417,-0.60417 0.28887,0.72188 0.25334,1.58438 -0.0789,1.91667 -0.33229,0.33229 -0.56864,-0.25833 -0.52522,-1.3125 z m 1,-7 c 0.048,-1.16494 0.28494,-1.4019 0.60417,-0.60417 0.28887,0.72188 0.25334,1.58438 -0.0789,1.91667 -0.33229,0.33229 -0.56864,-0.25833 -0.52522,-1.3125 z m -7,-1 c 0.048,-1.16494 0.28494,-1.4019 0.60417,-0.60417 0.28887,0.72188 0.25334,1.58438 -0.0789,1.91667 -0.33229,0.33229 -0.56864,-0.25833 -0.52522,-1.3125 z m 1,-8 c 0.048,-1.16494 0.28494,-1.4019 0.60417,-0.60417 0.28887,0.72188 0.25334,1.58438 -0.0789,1.91667 -0.33229,0.33229 -0.56864,-0.25833 -0.52522,-1.3125 z m 1,-6 c 0.048,-1.16494 0.28494,-1.4019 0.60417,-0.60417 0.28887,0.72188 0.25334,1.58438 -0.0789,1.91667 -0.33229,0.33229 -0.56864,-0.25833 -0.52522,-1.3125 z m 1,-6 c 0.048,-1.16494 0.28494,-1.4019 0.60417,-0.60417 0.28887,0.72188 0.25334,1.58438 -0.0789,1.91667 -0.33229,0.33229 -0.56864,-0.25833 -0.52522,-1.3125 z m 9,-8 c 0.048,-1.16494 0.28494,-1.4019 0.60417,-0.60417 0.28887,0.72188 0.25334,1.58438 -0.0789,1.91667 -0.33229,0.33229 -0.56864,-0.25833 -0.52522,-1.3125 z m -5,-12 c 0.048,-1.16494 0.28494,-1.4019 0.60417,-0.60417 0.28887,0.72188 0.25334,1.58438 -0.0789,1.91667 -0.33229,0.33229 -0.56864,-0.25833 -0.52522,-1.3125 z m 73.92106,-185.41667 c 0.5887,-1.1 1.29536,-2 1.57036,-2 0.275,0 0.0183,0.9 -0.57036,2 -0.58871,1.1 -1.29537,2 -1.57037,2 -0.275,0 -0.0183,-0.9 0.57037,-2 z m 21.61308,-39.18298 c 0.28881,-0.4673 0.94402,-0.59074 1.45601,-0.27431 1.30839,0.80862 1.16106,1.12396 -0.52511,1.12396 -0.8008,0 -1.21971,-0.38234 -0.9309,-0.84965 z m 4.92962,-7.74792 c -0.66497,-1.07595 1.29228,-2.56744 2.19049,-1.66923 0.33008,0.33007 0.0486,0.60013 -0.62554,0.60013 -0.67413,0 -0.94757,0.45 -0.60765,1 0.33991,0.55 0.39303,1 0.11803,1 -0.275,0 -0.7589,-0.4189 -1.07533,-0.9309 z m 7.11687,-13.0691 c 1.9658,-3.3 3.77297,-6 4.01594,-6 0.24297,0 -0.99732,2.7 -2.7562,6 -1.75888,3.3 -3.56606,6 -4.01595,6 -0.44988,0 0.79041,-2.7 2.75621,-6 z m 135.34043,-56.39301 c 0,-0.21616 0.69837,-0.661 1.55193,-0.98854 0.88993,-0.3415 1.29133,-0.17385 0.94099,0.39301 -0.58726,0.9502 -2.49292,1.40544 -2.49292,0.59553 z m 5.56429,-2.90012 c 0.37553,-0.98622 0.93469,-1.54122 1.24258,-1.23333 0.30788,0.30789 6.3e-4,1.1148 -0.68279,1.79313 -0.98761,0.98027 -1.10248,0.8654 -0.55979,-0.5598 z"
         id="path3" />
      <path
         style="fill:#333333;fill-opacity:1"
         d="m 541.97238,604.01902 c 0,-0.25492 -0.8763,-4.49242 -1.94734,-9.41667 -3.21906,-14.80017 -4.20934,-25.92881 -4.17815,-46.95318 0.0722,-48.6722 10.06266,-98.92571 30.81418,-155 14.48775,-39.14847 41.35596,-95.25339 71.11551,-148.5 4.14983,-7.425 7.96082,-13.95 8.46886,-14.5 0.50804,-0.55 -5.14515,11.15852 -12.56265,26.01893 -32.30238,64.71542 -54.15398,115.41063 -66.37179,153.98107 -12.25607,38.6912 -20.9824,79.719 -24.8851,117 -1.77373,16.94371 -2.04469,55.12014 -0.48577,68.43891 0.54327,4.6414 0.77277,8.6539 0.51,8.91667 -0.26276,0.26277 -0.47775,0.26919 -0.47775,0.0143 z m -124,-23.92359 c -27.775,-0.36544 -62.3125,-0.72785 -76.75,-0.80535 l -26.25,-0.14091 v -124 -124 h 8 8 V 449.5408 567.93243 l 62.75,0.47835 c 69.06519,0.52649 72.92605,0.79367 104.75,7.24874 9.35,1.89653 18.35,3.86887 20,4.38299 3.42788,1.06808 -22.31282,1.08163 -100.5,0.0529 z m 155,-0.42351 c 10.29182,-2.75543 35.16201,-7.52072 47.84999,-9.16838 10.16106,-1.31951 24.99632,-1.73026 75.40001,-2.08764 l 62.75,-0.44492 V 449.56007 331.14917 h 8 8 v 123.84168 123.84168 l -52.75,0.6611 c -138.86895,1.7404 -155.15732,1.75986 -149.25,0.17829 z m 207,-406.52275 c 0,-1.1 0.40787,-2 0.90638,-2 0.49851,0 0.67102,0.9 0.38336,2 -0.28765,1.1 -0.69552,2 -0.90638,2 -0.21085,0 -0.38336,-0.9 -0.38336,-2 z m 5.5,-10 c 0.99548,-1.1 2.03497,-2 2.30997,-2 0.275,0 -0.31449,0.9 -1.30997,2 -0.99549,1.1 -2.03498,2 -2.30998,2 -0.275,0 0.31449,-0.9 1.30998,-2 z m -22,-5 -4,-0.71619 3.69098,-0.1419 c 2.03004,-0.078 3.9691,0.30809 4.30902,0.85809 0.33991,0.55 0.47897,0.93614 0.30901,0.8581 -0.16996,-0.0781 -2.10901,-0.46419 -4.30901,-0.8581 z m 33.26166,-0.70726 c 1.24391,-0.23919 3.04391,-0.23011 4,0.0202 0.95608,0.25029 -0.0617,0.446 -2.26166,0.4349 -2.2,-0.0111 -2.98226,-0.21589 -1.73834,-0.45508 z m -24.76166,-2.67029 c 0,-0.20766 0.7875,-0.99516 1.75,-1.75 1.58605,-1.24387 1.62142,-1.2085 0.37755,0.37755 -1.30637,1.66575 -2.12755,2.19548 -2.12755,1.37245 z m 13.87244,-2.37245 c -1.24387,-1.58605 -1.2085,-1.62142 0.37756,-0.37755 0.9625,0.75484 1.75,1.54234 1.75,1.75 0,0.82303 -0.82119,0.2933 -2.12756,-1.37245 z m -5.87244,-10.75 c 0,-1.375 0.17254,-2.5 0.38342,-2.5 0.21088,0 0.59848,1.125 0.86133,2.5 0.26284,1.375 0.0903,2.5 -0.38343,2.5 -0.47373,0 -0.86132,-1.125 -0.86132,-2.5 z m -35.15455,-9 c -0.31208,-3.3 -0.88605,-6.9 -1.2755,-8 -0.53222,-1.50324 -0.36333,-1.42545 0.67997,0.31318 l 1.38807,2.31318 1.21193,-2.31318 c 0.84305,-1.6091 1.01278,-1.70442 0.55763,-0.31318 -0.35987,1.1 -0.95589,4.7 -1.3245,8 l -0.6702,6 z m -5.77928,-14.76802 c -2.84796,-3.50994 -2.96025,-3.80544 -0.65817,-1.73198 2.39233,2.15476 5.23237,6.03603 4.37718,5.98198 -0.15685,-0.01 -1.8304,-1.92242 -3.71901,-4.25 z m 9.7196,2.76802 c 0.56682,-1.1 2.3094,-3.12336 3.8724,-4.49636 l 2.84183,-2.49637 -2.99225,3.49637 c -4.74139,5.54018 -4.80682,5.60164 -3.72198,3.49636 z m -20.28577,-9.5 c -1.1,-0.47268 -4.4375,-0.89106 -7.41667,-0.92971 -2.97917,-0.0387 -5.22917,-0.23438 -5,-0.43495 0.7332,-0.64168 13.0993,-1.48464 12.4643,-0.84964 -0.3357,0.3357 0.41625,1.1803 1.671,1.8769 2.56221,1.42245 1.35701,1.65905 -1.71863,0.3374 z m 33.83333,-1.39011 c 0,-1.18316 1.00905,-1.36239 5.08333,-0.90292 6.3628,0.71754 7.17807,1.29303 1.83179,1.29303 -2.24668,0 -4.72168,0.24437 -5.5,0.54303 -0.82631,0.31709 -1.41512,-0.0712 -1.41512,-0.93314 z m -29.33333,-3.71862 c 1.925,-1.15569 4.58506,-3.06651 5.91125,-4.24626 1.32618,-1.17976 2.06876,-1.55279 1.65016,-0.82896 -1.0065,1.74041 -8.56001,7.18498 -9.96145,7.18021 -0.60498,-0.002 0.47504,-0.9493 2.40004,-2.10499 z m 22.24987,-0.82522 c -2.22761,-1.61367 -4.39269,-3.52617 -4.81129,-4.25 -0.4186,-0.72383 0.32398,-0.3508 1.65017,0.82896 1.32618,1.17975 3.98625,3.09057 5.91125,4.24626 1.925,1.15569 3.00501,2.10294 2.40003,2.10499 -0.60497,0.002 -2.92255,-1.31654 -5.15016,-2.93021 z M 744.38567,90.732505 c 0.30767,-1.145833 0.56554,-3.845833 0.57305,-6 0.0188,-5.389431 0.62715,-4.206907 1.28615,2.5 0.44366,4.515372 0.26482,5.583333 -0.935,5.583333 -1.01571,0 -1.30717,-0.657019 -0.9242,-2.083333 z"
         id="path2" />
    </g>
  </g>
</svg>
