<?xml version="1.0" encoding="UTF-8" standalone="no"?>
<svg
   version="1.0"
   width="1080.000000pt"
   height="1080.000000pt"
   viewBox="0 0 1080.000000 1080.000000"
   preserveAspectRatio="xMidYMid meet"
   id="svg3"
   sodipodi:docname="trace_image.svg"
   inkscape:version="1.3.2 (091e20e, 2023-11-25, custom)"
   xmlns:inkscape="http://www.inkscape.org/namespaces/inkscape"
   xmlns:sodipodi="http://sodipodi.sourceforge.net/DTD/sodipodi-0.dtd"
   xmlns="http://www.w3.org/2000/svg"
   xmlns:svg="http://www.w3.org/2000/svg">
  <defs
     id="defs3" />
  <sodipodi:namedview
     id="namedview3"
     pagecolor="#ffffff"
     bordercolor="#000000"
     borderopacity="0.25"
     inkscape:showpageshadow="2"
     inkscape:pageopacity="0.0"
     inkscape:pagecheckerboard="true"
     inkscape:deskcolor="#d1d1d1"
     inkscape:document-units="pt"
     showgrid="false"
     inkscape:zoom="0.50277778"
     inkscape:cx="719.00552"
     inkscape:cy="720"
     inkscape:window-width="1920"
     inkscape:window-height="991"
     inkscape:window-x="-9"
     inkscape:window-y="-9"
     inkscape:window-maximized="1"
     inkscape:current-layer="svg3" />
  <metadata
     id="metadata1">
Created by potrace 1.14, written by Peter Selinger 2001-2017
</metadata>
  <g
     transform="translate(0.000000,1080.000000) scale(0.100000,-0.100000)"
     fill="#000000"
     stroke="none"
     id="g3">
    <path
       d="M7402 9713 c-4 -82 -22 -140 -59 -182 -48 -57 -97 -79 -195 -90 -83 -8 -83 -8 -22 -10 100 -2 156 -24 207 -81 47 -52 65 -103 69 -193 l1 -42 4 40 c9 104 24 143 69 194 53 59 110 81 207 81 81 0 69 6 -25 13 -163 13 -235 90 -251 272 l-4 40 -1 -42z m70 -210 c23 -24 57 -48 76 -54 l35 -12 -32 -13 c-52 -22 -97 -62 -122 -108 l-23 -44 -27 47 c-24 42 -66 79 -124 109 -17 9 -16 11 15 25 44 18 107 82 122 124 l12 33 13 -33 c8 -17 33 -51 55 -74z"
       id="path1" />
    <path
       d="M7751 9142 c-1 -53 -31 -114 -68 -140 -29 -20 -86 -39 -138 -45 -21 -3 -16 -5 15 -6 113 -4 189 -77 191 -184 1 -40 1 -40 14 20 7 34 24 76 36 92 30 41 94 71 155 72 27 1 38 3 24 5 -102 15 -129 26 -164 64 -32 35 -47 72 -59 140 -3 15 -5 8 -6 -18z m19 -77 c0 -22 56 -81 91 -95 l31 -13 -28 -15 c-41 -21 -81 -60 -95 -94 l-12 -29 -17 39 c-18 39 -56 76 -91 87 -17 6 -14 11 26 36 31 20 52 43 63 68 16 38 32 45 32 16z"
       id="path2" />
    <path
       d="M6790 9052 c-445 -322 -773 -627 -978 -910 -71 -99 -193 -335 -213 -411 -14 -54 -29 -68 -29 -26 0 38 -27 95 -45 95 -8 0 -20 -12 -27 -27 -60 -148 -188 -373 -213 -373 -7 0 -18 6 -24 14 -19 23 -140 92 -218 126 -121 51 -288 89 -446 100 -81 6 -353 10 -632 8 l-490 -3 -3 -92 -3 -93 -92 0 c-59 0 -97 -4 -105 -12 -7 -7 -12 -44 -12 -95 l0 -82 -97 -3 -98 -3 -3 -1282 -2 -1281 62 -6 c35 -3 338 -8 673 -11 336 -3 808 -8 1051 -12 l441 -6 12 -64 c24 -130 94 -315 139 -365 22 -26 44 -6 31 28 -13 36 -46 226 -54 316 -6 62 -4 79 6 82 8 2 514 9 1124 15 611 7 1129 14 1153 17 l42 5 -2 1282 -3 1282 -97 3 -98 3 0 82 c0 51 -5 88 -12 95 -8 8 -51 12 -130 12 l-117 0 -3 93 -3 92 -284 5 -283 5 53 51 c30 28 73 63 97 79 73 48 51 74 -51 57 -34 -5 -64 -8 -66 -6 -2 1 6 15 17 31 28 41 85 158 113 233 24 65 24 67 24 485 1 428 3 455 40 512 16 24 14 53 -2 53 -4 0 -69 -44 -143 -98z m-80 -227 c-448 -710 -859 -1496 -1094 -2092 -227 -578 -340 -1097 -353 -1625 l-6 -237 -28 16 c-64 38 -130 119 -183 226 l-53 106 37 -19 c20 -10 42 -25 49 -34 14 -17 41 -11 41 9 0 8 -11 22 -25 33 -13 11 -54 54 -90 96 -178 210 -225 335 -191 509 9 43 41 156 72 250 54 164 57 177 57 272 0 58 -7 129 -17 169 -9 38 -15 71 -12 73 4 4 43 -34 129 -125 53 -57 137 -112 171 -112 34 0 23 21 -30 56 -135 90 -212 263 -186 420 16 96 65 190 180 345 135 183 224 320 292 451 l57 109 6 -53 c4 -29 7 -79 7 -110 0 -33 8 -80 19 -108 24 -64 89 -150 113 -150 22 0 23 23 2 41 -57 47 -81 206 -50 329 41 160 151 367 283 533 130 163 377 402 617 598 106 85 310 238 314 235 1 -2 -56 -97 -128 -211z m149 -420 c1 -215 -9 -268 -78 -410 -58 -119 -107 -179 -159 -196 -54 -17 -181 -79 -188 -91 -3 -5 -1 -15 5 -21 7 -7 38 3 109 36 85 40 198 76 239 77 7 0 -23 -35 -68 -77 -99 -95 -166 -182 -223 -293 -75 -145 -104 -247 -190 -657 -64 -302 -102 -413 -190 -543 -67 -98 -227 -257 -354 -350 -61 -45 -102 -82 -102 -92 0 -25 19 -22 68 11 46 32 151 71 189 71 l24 0 -26 -37 c-36 -53 -62 -145 -85 -306 -23 -158 -45 -229 -97 -307 -47 -72 -148 -176 -248 -258 l-80 -65 -3 39 c-6 59 17 340 39 504 62 450 193 940 369 1379 211 530 534 1197 929 1921 l106 195 6 -175 c4 -96 7 -256 8 -355z m381 -2060 l0 -1265 -582 0 c-618 0 -631 -1 -788 -50 -146 -46 -450 -223 -464 -270 -2 -8 -4 8 -5 35 l-1 50 86 65 c102 77 246 226 292 302 48 81 71 156 93 307 30 208 54 274 123 340 57 55 50 65 -40 57 l-75 -7 98 98 c108 107 173 188 221 274 50 87 106 274 157 519 96 465 142 592 275 765 l39 50 285 -3 286 -3 0 -1264z m-2495 1237 c182 -34 361 -106 471 -189 l52 -38 -124 -170 c-147 -201 -184 -282 -192 -411 -3 -55 0 -97 11 -133 8 -28 13 -51 11 -51 -2 0 -25 14 -51 30 -83 53 -93 40 -57 -67 21 -60 28 -103 31 -188 l5 -110 -56 -173 c-94 -291 -105 -395 -56 -524 21 -56 83 -157 155 -250 l36 -46 -39 5 c-25 3 -42 1 -49 -9 -15 -17 -7 -29 32 -48 22 -11 42 -39 78 -110 26 -52 60 -111 76 -131 l30 -36 -97 43 c-53 24 -140 56 -192 71 l-95 27 -607 4 -608 3 0 1265 0 1266 563 -5 c511 -4 572 -7 672 -25z m-1275 -1352 l5 -1185 620 -5 c699 -6 671 -3 870 -90 145 -64 321 -176 304 -194 -3 -3 -80 12 -170 34 -156 37 -248 55 -419 82 -47 7 -315 13 -725 17 l-650 6 -3 1250 c-1 688 0 1256 3 1263 3 9 26 12 82 10 l78 -3 5 -1185z m4025 -75 l0 -1260 -655 -6 c-702 -6 -701 -6 -981 -64 -68 -14 -193 -43 -278 -65 -85 -22 -156 -39 -158 -36 -7 7 133 105 223 157 99 57 196 98 311 130 76 22 96 23 698 28 l620 6 2 1175 c2 646 5 1181 8 1188 3 9 31 12 107 10 l103 -3 0 -1260z"
       id="path3" />
  </g>
</svg>
