<?xml version="1.0" encoding="UTF-8"?>
<!DOCTYPE svg PUBLIC "-//W3C//DTD SVG 1.1//EN" "http://www.w3.org/Graphics/SVG/1.1/DTD/svg11.dtd">
<svg xmlns="http://www.w3.org/2000/svg" version="1.1" width="380px" height="61px" style="shape-rendering:geometricPrecision; text-rendering:geometricPrecision; image-rendering:optimizeQuality; fill-rule:evenodd; clip-rule:evenodd" xmlns:xlink="http://www.w3.org/1999/xlink">
<g><path style="opacity:1" fill="#fefffe" d="M -0.5,-0.5 C 126.167,-0.5 252.833,-0.5 379.5,-0.5C 379.5,19.8333 379.5,40.1667 379.5,60.5C 252.833,60.5 126.167,60.5 -0.5,60.5C -0.5,40.1667 -0.5,19.8333 -0.5,-0.5 Z"/></g>
<g><path style="opacity:1" fill="#3ac2db" d="M 20.5,5.5 C 27.0103,5.0698 33.3436,5.90314 39.5,8C 42.6667,9.83333 45.1667,12.3333 47,15.5C 48.128,17.3453 48.628,19.3453 48.5,21.5C 45.1016,21.8204 41.7683,21.487 38.5,20.5C 34.5698,13.9613 28.9031,11.7946 21.5,14C 16.5723,15.9268 13.4056,19.4268 12,24.5C 10.1215,32.9586 11.9548,40.2919 17.5,46.5C 24.7637,50.7923 31.7637,50.459 38.5,45.5C 40.1298,42.7239 40.7965,39.7239 40.5,36.5C 36.8333,36.5 33.1667,36.5 29.5,36.5C 29.2436,34.2075 29.5769,32.0408 30.5,30C 36.4908,29.5005 42.4908,29.3338 48.5,29.5C 48.5,38.5 48.5,47.5 48.5,56.5C 44.2607,57.2111 41.5941,55.5444 40.5,51.5C 28.532,60.1871 17.3653,59.1871 7,48.5C 0.376433,35.9248 1.0431,23.9248 9,12.5C 12.2635,9.0374 16.0968,6.70406 20.5,5.5 Z"/></g>
<g><path style="opacity:1" fill="#33c0d9" d="M 151.5,7.5 C 151.334,15.84 151.5,24.1733 152,32.5C 153.008,32.0183 154.175,31.8516 155.5,32C 156.252,31.3292 156.586,30.4959 156.5,29.5C 159.964,26.5375 163.297,23.3709 166.5,20C 169.5,19.3333 172.5,19.3333 175.5,20C 170.121,25.0437 165.121,30.377 160.5,36C 164.197,40.6028 168.03,45.1028 172,49.5C 172.483,50.448 172.649,51.448 172.5,52.5C 174.59,52.4501 175.923,53.4501 176.5,55.5C 173.554,56.6548 170.554,56.8214 167.5,56C 162.333,50.1667 157.167,44.3333 152,38.5C 151.501,44.4908 151.334,50.4908 151.5,56.5C 148.833,56.5 146.167,56.5 143.5,56.5C 143.333,40.1633 143.5,23.8299 144,7.5C 146.605,6.18575 149.105,6.18575 151.5,7.5 Z"/></g>
<g><path style="opacity:1" fill="#36c1da" d="M 196.5,35.5 C 196.187,38.2469 196.52,40.9135 197.5,43.5C 198.971,44.3805 199.804,45.7139 200,47.5C 202.877,42.6065 204.377,37.2732 204.5,31.5C 206.786,23.6905 208.786,15.6905 210.5,7.5C 213.784,6.34305 217.118,6.17638 220.5,7C 221.516,7.51935 222.182,8.35268 222.5,9.5C 223.994,18.9709 225.994,28.3042 228.5,37.5C 228.087,41.1834 228.921,44.5168 231,47.5C 233.468,44.7187 234.635,41.3854 234.5,37.5C 237.359,27.5844 240.025,17.5844 242.5,7.5C 245.446,6.34524 248.446,6.17858 251.5,7C 246.389,23.2174 242.055,39.7174 238.5,56.5C 233.57,56.8025 228.737,56.4692 224,55.5C 222.379,46.4361 220.546,37.4361 218.5,28.5C 218.003,25.0106 217.003,21.6773 215.5,18.5C 213.917,20.99 212.917,23.6567 212.5,26.5C 210.71,36.4768 209.043,46.4768 207.5,56.5C 202.57,56.8025 197.737,56.4692 193,55.5C 189.068,39.9395 184.901,24.4395 180.5,9C 180.645,8.22797 180.978,7.5613 181.5,7C 183.81,6.50335 186.143,6.33669 188.5,6.5C 188.5,8.16667 188.5,9.83333 188.5,11.5C 189.5,11.5 190.5,11.5 191.5,11.5C 191.927,16.5234 192.593,21.5234 193.5,26.5C 195.559,29.0382 196.559,32.0382 196.5,35.5 Z"/></g>
<g><path style="opacity:1" fill="#e4feff" d="M 151.5,7.5 C 152.329,14.3213 152.829,21.3213 153,28.5C 153.333,28.1667 153.667,27.8333 154,27.5C 154.708,28.3805 155.542,29.0472 156.5,29.5C 156.586,30.4959 156.252,31.3292 155.5,32C 154.175,31.8516 153.008,32.0183 152,32.5C 151.5,24.1733 151.334,15.84 151.5,7.5 Z"/></g>
<g><path style="opacity:1" fill="#3ac2db" d="M 69.5,19.5 C 79.5715,17.6278 87.0715,20.9612 92,29.5C 92.4983,32.8168 92.665,36.1501 92.5,39.5C 83.4754,39.1685 74.4754,39.5018 65.5,40.5C 64.7542,41.7362 64.4208,43.0695 64.5,44.5C 66.9165,44.9609 68.7498,46.2942 70,48.5C 75.7744,50.7227 80.6077,49.556 84.5,45C 87.1667,44.3333 89.8333,44.3333 92.5,45C 87.2949,55.6283 78.9615,59.2949 67.5,56C 57.4511,50.1977 54.2845,41.6977 58,30.5C 60.4373,25.2262 64.2706,21.5595 69.5,19.5 Z"/></g>
<g><path style="opacity:1" fill="#38c1da" d="M 111.5,19.5 C 122.293,17.149 130.126,20.8157 135,30.5C 135.498,33.4816 135.665,36.4816 135.5,39.5C 126.5,39.5 117.5,39.5 108.5,39.5C 108.5,41.8333 108.5,44.1667 108.5,46.5C 111.492,48.317 114.825,49.6503 118.5,50.5C 122.379,50.1244 125.379,48.291 127.5,45C 130.167,44.3333 132.833,44.3333 135.5,45C 130.153,55.5079 121.819,59.1745 110.5,56C 100.952,51.4 97.4515,43.9 100,33.5C 101.873,27.1358 105.706,22.4691 111.5,19.5 Z"/></g>
<g><path style="opacity:1" fill="#3cc3db" d="M 268.5,19.5 C 287.349,18.188 295.182,26.8546 292,45.5C 285.711,56.8192 276.544,59.9859 264.5,55C 255.593,47.9267 253.427,39.0934 258,28.5C 260.505,24.1888 264.005,21.1888 268.5,19.5 Z"/></g>
<g><path style="opacity:1" fill="#3ac3db" d="M 301.5,19.5 C 304.97,18.8748 307.804,19.8748 310,22.5C 313.206,20.4808 316.706,19.4808 320.5,19.5C 320.5,21.8333 320.5,24.1667 320.5,26.5C 315.029,26.1558 311.195,28.4891 309,33.5C 308.5,41.1594 308.334,48.8261 308.5,56.5C 305.833,56.5 303.167,56.5 300.5,56.5C 300.187,44.0867 300.521,31.7533 301.5,19.5 Z"/></g>
<g><path style="opacity:1" fill="#38c2da" d="M 334.5,20.5 C 334.281,21.675 334.614,22.675 335.5,23.5C 336.107,23.3764 336.44,23.0431 336.5,22.5C 343.195,18.2233 349.695,18.5567 356,23.5C 362.698,18.2828 369.365,18.2828 376,23.5C 375.975,34.6396 376.809,45.6396 378.5,56.5C 375.833,56.5 373.167,56.5 370.5,56.5C 370.666,47.8269 370.5,39.1603 370,30.5C 366.666,24.7928 362.499,24.1261 357.5,28.5C 356.502,37.8096 356.168,47.1429 356.5,56.5C 353.833,56.5 351.167,56.5 348.5,56.5C 348.666,47.8269 348.5,39.1603 348,30.5C 344.472,24.2599 340.472,23.9266 336,29.5C 335.5,38.4938 335.334,47.4938 335.5,56.5C 332.833,56.5 330.167,56.5 327.5,56.5C 327.5,44.1667 327.5,31.8333 327.5,19.5C 329.903,19.448 332.236,19.7814 334.5,20.5 Z"/></g>
<g><path style="opacity:1" fill="#a2f9fe" d="M 334.5,20.5 C 335.167,21.1667 335.833,21.8333 336.5,22.5C 336.44,23.0431 336.107,23.3764 335.5,23.5C 334.614,22.675 334.281,21.675 334.5,20.5 Z"/></g>
<g><path style="opacity:1" fill="#e5feff" d="M 218.5,28.5 C 216.114,28.7413 214.114,28.0746 212.5,26.5C 212.917,23.6567 213.917,20.99 215.5,18.5C 217.003,21.6773 218.003,25.0106 218.5,28.5 Z"/></g>
<g><path style="opacity:1" fill="#fdfffe" d="M 269.5,26.5 C 281.767,25.6645 286.6,31.3312 284,43.5C 278.757,51.9601 272.59,52.6267 265.5,45.5C 264.338,40.8687 264.172,36.202 265,31.5C 266.707,29.9625 268.207,28.2959 269.5,26.5 Z"/></g>
<g><path style="opacity:1" fill="#f4fffe" d="M 125.5,29.5 C 124.566,30.5676 124.232,31.901 124.5,33.5C 121.615,33.1936 118.948,33.5269 116.5,34.5C 114.08,34.7076 111.747,34.3742 109.5,33.5C 108.374,31.0503 109.041,29.0503 111.5,27.5C 116.808,24.4976 121.475,25.1642 125.5,29.5 Z"/></g>
<g><path style="opacity:1" fill="#f2fffe" d="M 71.5,25.5 C 76.7403,24.5384 80.9069,26.2051 84,30.5C 84.6667,31.5 84.6667,32.5 84,33.5C 77.5752,33.975 71.0752,33.975 64.5,33.5C 66.077,30.2508 68.4103,27.5842 71.5,25.5 Z"/></g>
<g><path style="opacity:1" fill="#c0fbfe" d="M 125.5,29.5 C 127.22,30.7507 127.553,32.2507 126.5,34C 123.183,34.4983 119.85,34.665 116.5,34.5C 118.948,33.5269 121.615,33.1936 124.5,33.5C 124.232,31.901 124.566,30.5676 125.5,29.5 Z"/></g>
<g><path style="opacity:1" fill="#d5feff" d="M 204.5,31.5 C 204.377,37.2732 202.877,42.6065 200,47.5C 199.804,45.7139 198.971,44.3805 197.5,43.5C 196.52,40.9135 196.187,38.2469 196.5,35.5C 198.764,34.7814 201.097,34.448 203.5,34.5C 203.263,33.209 203.596,32.209 204.5,31.5 Z"/></g>
<g><path style="opacity:1" fill="#dcfefe" d="M 228.5,37.5 C 230.5,37.5 232.5,37.5 234.5,37.5C 234.635,41.3854 233.468,44.7187 231,47.5C 228.921,44.5168 228.087,41.1834 228.5,37.5 Z"/></g>
</svg>
